{
    "asset" : {
        "generator" : "Khronos glTF Blender I/O v1.4.40",
        "version" : "2.0"
    },
    "scene" : 0,
    "scenes" : [
        {
            "name" : "Scene",
            "nodes" : [
                0,
                1
            ]
        }
    ],
    "nodes" : [
        {
            "mesh" : 0,
            "name" : "Object_2",
            "translation" : [
                0,
                1.6485557556152344,
                0
            ]
        },
        {
            "mesh" : 1,
            "name" : "Object_3"
        }
    ],
    "animations" : [
        {
            "channels" : [
                {
                    "sampler" : 0,
                    "target" : {
                        "node" : 0,
                        "path" : "translation"
                    }
                },
                {
                    "sampler" : 1,
                    "target" : {
                        "node" : 0,
                        "path" : "rotation"
                    }
                }
            ],
            "name" : "Object_2Action",
            "samplers" : [
                {
                    "input" : 8,
                    "interpolation" : "LINEAR",
                    "output" : 9
                },
                {
                    "input" : 8,
                    "interpolation" : "LINEAR",
                    "output" : 10
                }
            ]
        },
        {
            "channels" : [
                {
                    "sampler" : 0,
                    "target" : {
                        "node" : 1,
                        "path" : "rotation"
                    }
                }
            ],
            "name" : "Object_3Action",
            "samplers" : [
                {
                    "input" : 11,
                    "interpolation" : "LINEAR",
                    "output" : 12
                }
            ]
        }
    ],
    "materials" : [
        {
            "doubleSided" : true,
            "name" : "Material",
            "pbrMetallicRoughness" : {
                "metallicFactor" : 0,
                "roughnessFactor" : 0.30000001192092896
            }
        }
    ],
    "meshes" : [
        {
            "name" : "Object_0",
            "primitives" : [
                {
                    "attributes" : {
                        "POSITION" : 0,
                        "NORMAL" : 1,
                        "TEXCOORD_0" : 2
                    },
                    "indices" : 3,
                    "material" : 0
                }
            ]
        },
        {
            "name" : "Object_1",
            "primitives" : [
                {
                    "attributes" : {
                        "POSITION" : 4,
                        "NORMAL" : 5,
                        "TEXCOORD_0" : 6
                    },
                    "indices" : 7,
                    "material" : 0
                }
            ]
        }
    ],
    "accessors" : [
        {
            "bufferView" : 0,
            "componentType" : 5126,
            "count" : 1922,
            "max" : [
                0.8391176462173462,
                0.32660841941833496,
                0.8391177654266357
            ],
            "min" : [
                -0.839117705821991,
                -0.17509198188781738,
                -0.8391177654266357
            ],
            "type" : "VEC3"
        },
        {
            "bufferView" : 1,
            "componentType" : 5126,
            "count" : 1922,
            "type" : "VEC3"
        },
        {
            "bufferView" : 2,
            "componentType" : 5126,
            "count" : 1922,
            "type" : "VEC2"
        },
        {
            "bufferView" : 3,
            "componentType" : 5123,
            "count" : 10656,
            "type" : "SCALAR"
        },
        {
            "bufferView" : 4,
            "componentType" : 5126,
            "count" : 6534,
            "max" : [
                2.057349920272827,
                1.4968253374099731,
                1.1982089281082153
            ],
            "min" : [
                -1.7973133325576782,
                0,
                -1.1982091665267944
            ],
            "type" : "VEC3"
        },
        {
            "bufferView" : 5,
            "componentType" : 5126,
            "count" : 6534,
            "type" : "VEC3"
        },
        {
            "bufferView" : 6,
            "componentType" : 5126,
            "count" : 6534,
            "type" : "VEC2"
        },
        {
            "bufferView" : 7,
            "componentType" : 5123,
            "count" : 36456,
            "type" : "SCALAR"
        },
        {
            "bufferView" : 8,
            "componentType" : 5126,
            "count" : 20,
            "max" : [
                0.8333333333333334
            ],
            "min" : [
                0.041666666666666664
            ],
            "type" : "SCALAR"
        },
        {
            "bufferView" : 9,
            "componentType" : 5126,
            "count" : 20,
            "type" : "VEC3"
        },
        {
            "bufferView" : 10,
            "componentType" : 5126,
            "count" : 20,
            "type" : "VEC4"
        },
        {
            "bufferView" : 11,
            "componentType" : 5126,
            "count" : 12,
            "max" : [
                0.5
            ],
            "min" : [
                0.041666666666666664
            ],
            "type" : "SCALAR"
        },
        {
            "bufferView" : 12,
            "componentType" : 5126,
            "count" : 12,
            "type" : "VEC4"
        }
    ],
    "bufferViews" : [
        {
            "buffer" : 0,
            "byteLength" : 23064,
            "byteOffset" : 0
        },
        {
            "buffer" : 0,
            "byteLength" : 23064,
            "byteOffset" : 23064
        },
        {
            "buffer" : 0,
            "byteLength" : 15376,
            "byteOffset" : 46128
        },
        {
            "buffer" : 0,
            "byteLength" : 21312,
            "byteOffset" : 61504
        },
        {
            "buffer" : 0,
            "byteLength" : 78408,
            "byteOffset" : 82816
        },
        {
            "buffer" : 0,
            "byteLength" : 78408,
            "byteOffset" : 161224
        },
        {
            "buffer" : 0,
            "byteLength" : 52272,
            "byteOffset" : 239632
        },
        {
            "buffer" : 0,
            "byteLength" : 72912,
            "byteOffset" : 291904
        },
        {
            "buffer" : 0,
            "byteLength" : 80,
            "byteOffset" : 364816
        },
        {
            "buffer" : 0,
            "byteLength" : 240,
            "byteOffset" : 364896
        },
        {
            "buffer" : 0,
            "byteLength" : 320,
            "byteOffset" : 365136
        },
        {
            "buffer" : 0,
            "byteLength" : 48,
            "byteOffset" : 365456
        },
        {
            "buffer" : 0,
            "byteLength" : 192,
            "byteOffset" : 365504
        }
    ],
    "buffers" : [
        {
            "byteLength" : 365696,
            "uri" : "teapot.bin"
        }
    ]
}
